<svg width="28" height="28" viewBox="0 0 28 28" fill="none" xmlns="http://www.w3.org/2000/svg">
<g clip-path="url(#clip0)">
<path d="M19.5562 18.8611L21.1118 17.1111C21.3549 16.8377 21.7778 17.0291 21.7778 17.4229V25.3744C21.7778 26.8236 20.7326 27.9994 19.4444 27.9994H2.33333C1.04514 27.9994 0 26.8236 0 25.3744V6.12441C0 4.67519 1.04514 3.49941 2.33333 3.49941H15.6285C15.9736 3.49941 16.1486 3.96973 15.9056 4.24863L14.35 5.99863C14.2771 6.08066 14.1799 6.12441 14.0729 6.12441H2.33333V25.3744H19.4444V19.1674C19.4444 19.0525 19.4833 18.9432 19.5562 18.8611ZM27.1687 7.82519L14.4035 22.1861L10.009 22.733C8.73542 22.8916 7.65139 21.683 7.79236 20.2393L8.27847 15.2955L21.0437 0.934569C22.1569 -0.317774 23.9556 -0.317774 25.0639 0.934569L27.1639 3.29707C28.2771 4.54941 28.2771 6.57832 27.1687 7.82519V7.82519ZM22.366 9.51504L19.5417 6.33769L10.5097 16.5041L10.1549 20.0752L13.3292 19.676L22.366 9.51504ZM25.516 5.15644L23.416 2.79394C23.2167 2.56973 22.891 2.56973 22.6965 2.79394L21.1944 4.48379L24.0187 7.66113L25.5208 5.97129C25.7153 5.7416 25.7153 5.38066 25.516 5.15644V5.15644Z" fill="#616161"/>
</g>
<defs>
<clipPath id="clip0">
<rect width="28" height="28" fill="white"/>
</clipPath>
</defs>
</svg>
